<?xml version="1.0" encoding="UTF-8" standalone="no"?>
<!DOCTYPE svg PUBLIC "-//W3C//DTD SVG 20010904//EN"
              "http://www.w3.org/TR/2001/REC-SVG-20010904/DTD/svg10.dtd">

<svg xmlns="http://www.w3.org/2000/svg"
     width="300px" height="1.45556in"
     viewBox="0 0 725 131">
  <path id="Imported Path"
        fill="white" stroke="black" stroke-width="1"
        d="M 452.00,108.29
           C 451.62,108.67 451.25,112.54 451.25,116.90
             451.25,124.39 451.38,124.76 454.25,124.76
             457.13,124.76 457.38,124.14 457.75,118.77
             458.12,113.91 458.50,112.91 460.62,112.91
             462.75,112.91 463.12,113.91 463.50,118.77
             463.88,123.64 464.38,124.76 466.25,124.76
             468.12,124.76 468.63,123.64 469.00,118.77
             469.38,113.91 469.75,112.91 471.88,112.91
             474.00,112.91 474.38,113.91 474.75,118.77
             475.12,124.26 475.38,124.76 478.38,124.76
             481.50,124.76 481.62,124.64 480.88,117.65
             480.00,109.54 477.50,106.67 472.50,107.92
             469.00,108.79 468.25,108.79 459.12,108.04
             455.62,107.79 452.38,107.92 452.00,108.29 Z
           M 442.50,116.03
           C 442.50,123.89 442.75,124.76 445.00,124.76
             447.25,124.76 447.50,123.89 447.50,116.03
             447.50,108.17 447.25,107.30 445.00,107.30
             442.75,107.30 442.50,108.17 442.50,116.03 Z
           M 427.00,108.92
           C 423.38,111.54 424.88,116.40 429.75,117.90
             435.00,119.40 434.88,121.52 429.50,120.52
             426.50,119.90 425.12,120.15 424.63,121.52
             423.75,123.64 426.25,124.76 431.88,124.76
             435.75,124.76 440.00,122.14 440.00,119.77
             440.00,117.90 436.13,114.78 433.75,114.78
             432.50,114.78 431.00,114.16 430.62,113.53
             430.12,112.78 431.62,112.29 434.25,112.29
             437.25,112.29 438.75,111.66 438.75,110.54
             438.75,107.17 430.88,106.05 427.00,108.92 Z
           M 405.00,107.92
           C 405.00,108.17 406.38,111.66 408.12,115.65
             411.75,123.64 411.75,126.63 408.12,126.63
             404.00,126.63 405.12,130.38 409.50,130.75
             414.25,131.25 415.25,130.00 420.00,118.52
             424.38,108.04 424.50,107.30 421.75,107.30
             420.62,107.30 418.88,109.42 417.75,112.29
             416.62,115.03 415.25,117.28 414.88,117.28
             414.38,117.28 413.12,115.03 412.00,112.29
             410.62,108.79 409.25,107.30 407.50,107.30
             406.13,107.30 405.00,107.54 405.00,107.92 Z
           M 390.25,109.42
           C 383.75,114.91 387.25,124.76 395.62,124.76
             401.25,124.76 403.75,123.64 402.88,121.52
             402.38,120.15 401.13,119.90 398.63,120.40
             396.62,120.89 394.38,120.77 393.50,120.15
             392.50,119.52 394.25,118.90 398.12,118.52
             405.62,117.78 406.75,115.16 402.00,110.41
             398.38,106.80 393.88,106.42 390.25,109.42 Z
           M 398.75,113.53
           C 398.75,114.16 397.38,114.78 395.62,114.78
             393.88,114.78 392.50,114.16 392.50,113.53
             392.50,112.78 393.88,112.29 395.62,112.29
             397.38,112.29 398.75,112.78 398.75,113.53 Z
           M 328.12,108.29
           C 327.75,108.67 327.50,112.54 327.50,116.90
             327.50,124.51 327.62,124.76 330.62,124.76
             333.50,124.76 333.75,124.26 333.75,119.02
             333.75,114.41 334.25,113.16 336.25,112.66
             337.62,112.29 338.75,111.04 338.75,109.92
             338.75,108.42 337.50,107.79 333.75,107.79
             331.13,107.67 328.50,107.92 328.12,108.29 Z
           M 285.00,116.15
           C 285.00,123.89 285.25,124.76 287.50,124.76
             289.62,124.76 290.00,123.89 290.00,119.90
             290.00,114.78 292.50,111.54 295.62,112.78
             296.88,113.28 297.50,115.16 297.50,119.15
             297.50,123.89 297.88,124.76 300.00,124.76
             302.25,124.76 302.50,123.89 302.50,117.90
             302.50,109.67 300.12,107.54 291.00,107.54
             291.00,107.54 285.00,107.54 285.00,107.54
             285.00,107.54 285.00,116.15 285.00,116.15 Z
           M 270.25,109.29
           C 266.12,112.16 267.12,116.28 272.12,117.90
             278.38,119.90 278.75,121.39 272.75,120.52
             268.00,119.77 267.38,120.02 267.75,121.89
             268.38,125.01 277.62,125.64 280.50,122.77
             284.12,119.15 282.88,117.03 275.00,113.78
             272.00,112.54 272.12,112.41 276.62,112.41
             279.75,112.29 281.25,111.66 281.25,110.54
             281.25,107.05 274.50,106.30 270.25,109.29 Z
           M 255.00,116.03
           C 255.00,123.89 255.25,124.76 257.38,124.76
             259.38,124.76 259.88,123.76 260.25,119.40
             260.50,115.40 261.25,113.91 263.50,112.91
             265.00,112.29 266.25,110.66 266.25,109.54
             266.25,106.92 263.75,106.55 261.50,108.79
             260.38,109.92 260.00,109.92 260.00,108.79
             260.00,107.92 258.88,107.30 257.50,107.30
             255.25,107.30 255.00,108.17 255.00,116.03 Z
           M 240.00,108.92
           C 232.00,112.91 234.88,123.76 244.25,124.51
             250.62,125.01 255.38,121.14 250.50,119.27
             249.38,118.77 247.75,119.02 246.88,119.77
             244.25,121.89 241.12,119.77 241.50,116.15
             241.88,113.41 242.50,112.91 246.25,112.78
             253.00,112.66 253.38,112.41 250.13,109.79
             246.75,106.92 244.38,106.67 240.00,108.92 Z
           M 195.00,116.15
           C 195.00,123.89 195.25,124.76 197.50,124.76
             199.50,124.76 200.00,123.89 200.00,120.02
             200.00,115.16 201.75,112.29 204.63,112.29
             205.75,112.29 206.25,114.28 206.25,118.52
             206.25,124.26 206.50,124.76 209.25,124.76
             212.13,124.76 212.38,124.14 212.75,118.77
             213.12,113.91 213.50,112.91 215.62,112.91
             217.75,112.91 218.12,113.91 218.50,118.77
             218.88,123.76 219.25,124.76 221.38,124.76
             223.38,124.76 223.75,123.89 223.75,117.90
             223.75,112.04 223.38,110.79 220.62,109.04
             218.00,107.30 216.75,107.17 214.25,108.42
             212.38,109.29 210.25,109.42 209.00,108.67
             207.88,108.17 204.25,107.54 201.00,107.54
             201.00,107.54 195.00,107.54 195.00,107.54
             195.00,107.54 195.00,116.15 195.00,116.15 Z
           M 178.12,108.79
           C 174.63,110.79 173.75,112.29 173.75,116.78
             173.75,121.77 177.13,124.76 182.88,124.76
             186.25,124.76 188.00,123.89 189.88,121.52
             193.25,117.15 193.12,114.16 189.38,110.41
             186.12,107.05 182.13,106.55 178.12,108.79 Z
           M 186.00,116.15
           C 186.50,119.90 183.25,121.89 180.50,119.65
             178.62,118.15 178.12,114.53 179.63,113.03
             181.62,111.04 185.62,112.91 186.00,116.15 Z
           M 161.25,116.03
           C 161.25,123.89 161.50,124.76 163.62,124.76
             165.62,124.76 166.12,123.76 166.50,119.40
             166.75,115.40 167.50,113.91 169.75,112.91
             171.25,112.29 172.50,110.66 172.50,109.54
             172.50,106.92 170.00,106.55 167.75,108.79
             166.62,109.92 166.25,109.92 166.25,108.79
             166.25,107.92 165.12,107.30 163.75,107.30
             161.50,107.30 161.25,108.17 161.25,116.03 Z
           M 98.12,110.41
           C 96.38,112.04 95.00,114.28 95.00,115.28
             95.00,118.90 98.00,123.64 100.75,124.26
             105.25,125.39 110.62,124.26 110.62,122.27
             110.62,121.02 109.62,120.52 107.50,120.77
             105.88,120.89 103.62,120.64 102.50,120.15
             101.38,119.65 103.00,119.02 106.88,118.65
             114.25,117.78 115.50,115.16 110.75,110.41
             106.75,106.42 102.00,106.42 98.12,110.41 Z
           M 107.50,113.53
           C 107.50,114.16 106.12,114.78 104.38,114.78
             102.63,114.78 101.25,114.16 101.25,113.53
             101.25,112.78 102.63,112.29 104.38,112.29
             106.12,112.29 107.50,112.78 107.50,113.53 Z
           M 63.75,116.15
           C 63.75,123.89 64.00,124.76 66.25,124.76
             68.38,124.76 68.75,123.89 68.75,119.27
             68.75,114.78 69.25,113.53 71.25,112.91
             72.62,112.54 73.75,111.16 73.75,110.04
             73.75,108.42 72.62,107.79 68.75,107.79
             68.75,107.79 63.75,107.67 63.75,107.67
             63.75,107.67 63.75,116.15 63.75,116.15 Z
           M 44.38,110.41
           C 40.62,114.16 40.50,117.15 43.88,121.52
             45.88,124.01 47.50,124.76 51.13,124.76
             56.75,124.76 60.00,121.77 60.00,116.53
             60.00,112.16 59.00,110.66 55.38,108.67
             51.13,106.55 47.62,107.05 44.38,110.41 Z
           M 54.75,115.53
           C 55.25,118.65 52.25,121.39 49.50,120.27
             47.50,119.52 46.75,114.66 48.38,113.03
             50.12,111.29 54.38,112.91 54.75,115.53 Z
           M 342.88,106.05
           C 342.50,107.42 341.75,108.54 341.13,108.54
             340.50,108.54 340.00,109.42 340.00,110.41
             340.00,111.41 340.62,112.29 341.25,112.29
             342.00,112.29 342.50,114.03 342.50,116.15
             342.50,121.89 344.50,124.76 348.75,124.76
             351.25,124.76 352.50,124.14 352.50,122.89
             352.50,121.89 351.62,121.02 350.62,121.02
             349.38,121.02 348.75,119.65 348.75,116.65
             348.75,113.66 349.38,112.29 350.62,112.29
             351.62,112.29 352.50,111.41 352.50,110.41
             352.50,109.42 351.75,108.54 350.75,108.54
             349.88,108.54 348.75,107.42 348.38,106.05
             348.00,104.68 346.75,103.55 345.62,103.55
             344.50,103.55 343.25,104.68 342.88,106.05 Z
           M 23.75,113.53
           C 23.75,123.89 23.88,124.76 26.25,124.76
             28.25,124.76 28.75,123.89 28.75,121.02
             28.75,117.53 29.00,117.28 33.75,117.28
             37.88,117.28 38.75,116.90 38.75,114.78
             38.75,112.66 37.88,112.29 33.75,112.29
             29.63,112.29 28.75,111.91 28.75,109.79
             28.75,107.67 29.63,107.30 35.12,107.30
             40.50,107.30 41.38,106.92 41.00,105.05
             40.62,103.30 39.00,102.80 32.12,102.55
             32.12,102.55 23.75,102.18 23.75,102.18
             23.75,102.18 23.75,113.53 23.75,113.53 Z
           M 368.38,101.81
           C 367.88,102.30 367.50,107.67 367.50,113.78
             367.50,124.64 367.50,124.76 370.62,124.76
             372.88,124.76 373.75,124.14 373.75,122.52
             373.75,118.65 375.38,118.27 378.12,121.77
             379.88,124.01 381.62,124.89 383.63,124.51
             383.63,124.51 386.62,124.14 386.62,124.14
             386.62,124.14 383.38,120.27 383.38,120.27
             379.38,115.53 379.25,114.66 382.50,111.66
             383.88,110.41 385.00,108.92 385.00,108.29
             385.00,106.05 380.25,107.42 377.38,110.54
             377.38,110.54 374.38,113.78 374.38,113.78
             374.38,113.78 373.75,107.79 373.75,107.79
             373.12,101.93 370.75,99.44 368.38,101.81 Z
           M 306.25,112.66
           C 306.25,112.66 306.25,124.51 306.25,124.51
             306.25,124.51 313.38,124.64 313.38,124.64
             322.00,124.64 325.00,122.52 325.00,116.40
             325.00,110.91 321.00,106.92 316.25,107.54
             313.12,108.04 312.62,107.67 312.25,104.92
             312.00,102.68 311.00,101.56 309.12,101.31
             306.38,100.93 306.25,101.18 306.25,112.66 Z
           M 319.75,115.28
           C 320.38,118.15 316.88,121.14 314.25,120.15
             312.38,119.52 311.88,114.66 313.38,113.03
             315.00,111.41 319.38,112.91 319.75,115.28 Z
           M 149.75,102.43
           C 148.50,103.05 147.50,104.80 147.50,106.05
             147.50,107.42 147.00,108.54 146.25,108.54
             145.62,108.54 145.00,109.42 145.00,110.41
             145.00,111.41 145.62,112.29 146.25,112.29
             147.00,112.29 147.50,115.03 147.50,118.52
             147.50,123.89 147.88,124.76 150.00,124.76
             152.12,124.76 152.50,123.89 152.50,118.52
             152.50,113.16 152.88,112.29 155.00,112.29
             156.38,112.29 157.50,111.41 157.50,110.41
             157.50,109.42 156.38,108.54 155.00,108.54
             153.62,108.54 152.50,108.04 152.50,107.42
             152.50,106.80 153.62,106.05 155.00,105.67
             158.50,104.80 158.25,101.06 154.75,101.06
             153.12,101.06 150.88,101.68 149.75,102.43 Z
           M 128.75,104.80
           C 128.75,108.17 128.50,108.42 125.13,107.79
             122.25,107.17 120.75,107.67 118.25,110.16
             114.62,113.91 114.13,117.90 116.88,122.02
             118.50,124.26 120.00,124.64 126.25,124.64
             126.25,124.64 133.75,124.51 133.75,124.51
             133.75,124.51 133.75,112.78 133.75,112.78
             133.75,101.93 133.62,101.06 131.25,101.06
             129.25,101.06 128.75,101.93 128.75,104.80 Z
           M 128.00,115.16
           C 129.12,116.90 128.88,117.78 127.12,119.15
             123.00,122.14 118.25,117.78 121.38,113.91
             123.25,111.66 126.25,112.29 128.00,115.16 Z
           M 76.25,112.78
           C 76.25,124.76 76.25,124.76 79.38,124.76
             81.62,124.76 82.50,124.14 82.50,122.52
             82.50,118.65 83.88,118.52 86.75,121.89
             88.50,124.01 90.38,124.89 92.38,124.51
             92.38,124.51 95.38,124.14 95.38,124.14
             95.38,124.14 92.12,120.27 92.12,120.27
             88.12,115.53 88.00,114.66 91.25,111.66
             92.63,110.41 93.75,108.92 93.75,108.29
             93.75,106.05 89.00,107.42 86.12,110.54
             86.12,110.54 83.12,113.78 83.12,113.78
             83.12,113.78 82.50,107.67 82.50,107.67
             82.00,102.68 81.38,101.56 79.12,101.31
             76.38,100.93 76.25,101.18 76.25,112.78 Z
           M 442.62,101.56
           C 441.50,102.80 441.62,103.55 443.12,104.80
             445.75,106.92 449.50,104.05 447.38,101.56
             446.62,100.56 445.50,99.81 445.00,99.81
             444.50,99.81 443.38,100.56 442.62,101.56 Z
           M 357.62,113.16
           C 354.75,121.14 352.75,128.01 353.12,128.38
             355.12,130.38 358.38,125.14 362.62,112.91
             365.25,105.30 367.38,99.06 367.50,98.81
             367.50,98.69 366.50,98.56 365.12,98.56
             363.38,98.56 361.75,101.56 357.62,113.16 Z
           M 556.50,27.07
           C 536.00,33.06 532.62,57.89 551.12,65.25
             553.75,66.37 560.88,68.12 566.88,69.12
             581.25,71.61 584.25,74.23 578.75,79.22
             576.75,81.10 574.75,81.34 566.00,80.85
             559.50,80.47 553.50,79.22 549.88,77.60
             549.88,77.60 544.12,75.11 544.12,75.11
             544.12,75.11 540.75,81.97 540.75,81.97
             539.00,85.71 537.75,89.20 538.12,89.83
             539.75,92.45 553.75,96.44 563.88,96.94
             581.38,98.06 594.62,92.82 599.25,83.22
             603.12,74.86 600.88,65.00 593.88,60.01
             591.50,58.26 584.75,56.14 576.25,54.40
             562.75,51.65 558.75,49.90 558.75,46.66
             558.75,41.30 574.00,39.30 585.50,43.17
             588.88,44.29 591.88,44.79 592.50,44.17
             593.12,43.54 594.75,40.42 596.12,37.18
             596.12,37.18 598.62,31.19 598.62,31.19
             598.62,31.19 595.25,29.44 595.25,29.44
             586.12,24.83 568.00,23.70 556.50,27.07 Z
           M 390.88,27.07
           C 376.88,31.69 367.12,45.79 367.12,61.13
             367.12,81.59 381.25,95.44 403.63,96.94
             415.75,97.81 425.88,95.07 432.00,89.45
             432.00,89.45 436.38,85.46 436.38,85.46
             436.38,85.46 430.88,80.10 430.88,80.10
             430.88,80.10 425.38,74.61 425.38,74.61
             425.38,74.61 419.88,77.48 419.88,77.48
             409.00,82.97 395.12,80.47 390.00,71.99
             390.00,71.99 387.50,68.00 387.50,68.00
             387.50,68.00 414.12,67.37 414.12,67.37
             414.12,67.37 440.62,66.75 440.62,66.75
             440.62,66.75 440.50,58.64 440.50,58.64
             440.25,48.28 436.62,40.30 429.25,33.81
             419.75,25.45 404.12,22.71 390.88,27.07 Z
           M 413.75,43.17
           C 417.13,45.29 421.25,50.90 421.25,53.52
             421.25,54.40 415.75,54.90 404.25,54.90
             404.25,54.90 387.38,54.90 387.38,54.90
             387.38,54.90 388.12,52.03 388.12,52.03
             388.63,50.53 390.88,47.41 393.25,45.16
             396.88,41.80 398.38,41.17 403.88,41.17
             407.50,41.17 411.75,42.04 413.75,43.17 Z
           M 306.88,28.07
           C 283.38,37.55 277.12,68.74 295.25,86.34
             307.00,97.69 328.63,100.68 344.12,93.07
             354.62,87.96 354.88,87.21 348.63,79.97
             348.63,79.97 343.38,73.86 343.38,73.86
             343.38,73.86 338.50,76.98 338.50,76.98
             334.75,79.47 332.12,80.22 325.75,80.22
             317.38,80.35 312.75,78.48 308.50,73.11
             303.88,67.50 304.62,67.37 332.50,67.37
             332.50,67.37 358.75,67.37 358.75,67.37
             358.75,67.37 358.75,60.51 358.75,60.51
             358.75,34.18 332.38,17.72 306.88,28.07 Z
           M 331.25,43.04
           C 334.75,44.79 338.75,50.53 338.75,53.65
             338.75,54.40 332.88,54.90 321.88,54.90
             321.88,54.90 305.00,54.90 305.00,54.90
             305.00,54.90 306.38,51.53 306.38,51.53
             308.00,47.28 311.12,43.67 314.38,42.29
             318.50,40.67 327.38,41.05 331.25,43.04 Z
           M 197.50,50.53
           C 197.50,50.53 197.50,96.07 197.50,96.07
             197.50,96.07 208.12,96.07 208.12,96.07
             208.12,96.07 218.75,96.07 218.75,96.07
             218.75,96.07 218.75,84.71 218.75,84.71
             218.75,84.71 218.75,73.48 218.75,73.48
             218.75,73.48 225.00,67.00 225.00,67.00
             228.88,62.88 231.62,61.01 232.13,61.88
             232.75,62.63 239.25,70.62 246.62,79.60
             246.62,79.60 260.12,96.07 260.12,96.07
             260.12,96.07 272.75,96.07 272.75,96.07
             282.62,96.07 285.00,95.69 284.12,94.44
             283.38,93.70 275.25,83.34 266.00,71.74
             256.62,60.01 248.38,49.16 247.38,47.78
             245.88,45.29 246.75,43.92 261.25,28.45
             269.75,19.34 278.12,10.36 279.88,8.36
             279.88,8.36 283.00,4.99 283.00,4.99
             283.00,4.99 271.00,4.99 271.00,4.99
             271.00,4.99 259.12,4.99 259.12,4.99
             259.12,4.99 239.88,25.45 239.88,25.45
             229.25,36.68 220.25,46.04 219.75,46.04
             219.12,46.16 218.75,36.93 218.75,25.58
             218.75,25.58 218.75,4.99 218.75,4.99
             218.75,4.99 208.12,4.99 208.12,4.99
             208.12,4.99 197.50,4.99 197.50,4.99
             197.50,4.99 197.50,50.53 197.50,50.53 Z
           M 105.00,13.72
           C 105.00,13.72 105.00,22.46 105.00,22.46
             105.00,22.46 129.38,22.71 129.38,22.71
             129.38,22.71 153.75,23.08 153.75,23.08
             153.75,23.08 129.38,52.40 129.38,52.40
             129.38,52.40 105.00,81.72 105.00,81.72
             105.00,81.72 105.00,88.83 105.00,88.83
             105.00,88.83 105.00,96.07 105.00,96.07
             105.00,96.07 145.00,96.07 145.00,96.07
             145.00,96.07 185.00,96.07 185.00,96.07
             185.00,96.07 185.00,87.33 185.00,87.33
             185.00,87.33 185.00,78.60 185.00,78.60
             185.00,78.60 159.38,78.35 159.38,78.35
             159.38,78.35 133.75,77.98 133.75,77.98
             133.75,77.98 158.12,48.66 158.12,48.66
             158.12,48.66 182.50,19.34 182.50,19.34
             182.50,19.34 182.50,12.10 182.50,12.10
             182.50,12.10 182.50,4.99 182.50,4.99
             182.50,4.99 143.75,4.99 143.75,4.99
             143.75,4.99 105.00,4.99 105.00,4.99
             105.00,4.99 105.00,13.72 105.00,13.72 Z
           M 22.50,50.53
           C 22.50,50.53 22.50,96.07 22.50,96.07
             22.50,96.07 58.12,96.07 58.12,96.07
             58.12,96.07 93.75,96.07 93.75,96.07
             93.75,96.07 93.75,87.33 93.75,87.33
             93.75,87.33 93.75,78.60 93.75,78.60
             93.75,78.60 69.38,78.60 69.38,78.60
             69.38,78.60 45.00,78.60 45.00,78.60
             45.00,78.60 45.00,68.62 45.00,68.62
             45.00,68.62 45.00,58.64 45.00,58.64
             45.00,58.64 66.00,58.39 66.00,58.39
             66.00,58.39 86.88,58.01 86.88,58.01
             86.88,58.01 86.88,49.90 86.88,49.90
             86.88,49.90 86.88,41.80 86.88,41.80
             86.88,41.80 66.00,41.42 66.00,41.42
             66.00,41.42 45.00,41.17 45.00,41.17
             45.00,41.17 45.00,31.81 45.00,31.81
             45.00,31.81 45.00,22.46 45.00,22.46
             45.00,22.46 68.75,22.46 68.75,22.46
             68.75,22.46 92.50,22.46 92.50,22.46
             92.50,22.46 92.50,13.72 92.50,13.72
             92.50,13.72 92.50,4.99 92.50,4.99
             92.50,4.99 57.50,4.99 57.50,4.99
             57.50,4.99 22.50,4.99 22.50,4.99
             22.50,4.99 22.50,50.53 22.50,50.53 Z
           M 453.75,48.03
           C 453.75,48.03 453.75,96.07 453.75,96.07
             453.75,96.07 463.75,96.07 463.75,96.07
             473.63,96.07 473.75,96.07 473.75,92.95
             473.75,89.33 474.63,89.08 477.62,91.82
             480.88,94.82 488.63,97.19 495.12,97.31
             511.13,97.44 525.00,87.46 529.12,72.86
             531.75,63.50 531.75,58.89 529.25,49.66
             526.38,39.67 518.62,31.07 509.25,27.57
             498.12,23.33 483.88,24.70 477.38,30.69
             475.00,32.81 475.00,32.56 475.00,16.47
             475.00,16.47 475.00,0.00 475.00,0.00
             475.00,0.00 464.38,0.00 464.38,0.00
             464.38,0.00 453.75,0.00 453.75,0.00
             453.75,0.00 453.75,48.03 453.75,48.03 Z
           M 501.38,44.42
           C 505.75,46.66 509.88,54.65 510.00,60.76
             510.00,63.00 509.12,67.12 508.00,69.87
             503.00,82.22 484.50,83.47 477.50,71.99
             474.50,67.12 474.12,56.39 476.88,51.03
             481.00,43.17 492.88,39.92 501.38,44.42 Z" />
</svg>
